<svg width="32" height="32" viewBox="0 0 32 32" fill="none" xmlns="http://www.w3.org/2000/svg">
<g clip-path="url(#clip0_1_249)">
<mask id="mask0_1_249" style="mask-type:luminance" maskUnits="userSpaceOnUse" x="0" y="0" width="32" height="32">
<path d="M0 0H32V32H0V0Z" fill="white"/>
</mask>
<g mask="url(#mask0_1_249)">
<mask id="mask1_1_249" style="mask-type:luminance" maskUnits="userSpaceOnUse" x="0" y="0" width="33" height="32">
<path d="M0 0H32.0179V32H0V0Z" fill="white"/>
</mask>
<g mask="url(#mask1_1_249)">
<path d="M27.1324 20.6412C28.3183 21.8449 28.8529 23.156 28.6665 24.6976C28.5509 25.7133 28.0838 26.6565 27.3461 27.364C26.419 28.2647 25.2952 28.7099 24.003 28.6751C22.7183 28.6393 21.6661 28.0953 20.6769 27.1315C20.4275 30.0831 19.0091 31.9918 16.0407 31.9918C13.0807 31.9918 11.6454 30.1009 11.4044 27.1325C10.1734 28.3278 8.82748 28.8624 7.23124 28.6214C6.23424 28.48 5.31563 28.0017 4.62795 27.2661C3.74512 26.3391 3.31689 25.2238 3.36206 23.94C3.4063 22.6835 3.93242 21.6313 4.89618 20.6675C4.6543 20.6148 4.51218 20.5696 4.36912 20.5612C2.23077 20.4539 0.482063 18.9555 0.0801809 16.8784C-0.120037 15.8706 0.0309693 14.8246 0.508059 13.9146C0.985148 13.0046 1.75954 12.2855 2.7023 11.8769C3.21053 11.6539 3.78089 11.5918 4.33336 11.4666C4.467 11.4308 4.61853 11.4402 4.87736 11.4224C2.97806 9.17482 2.63077 6.82094 4.72677 4.72588C6.82089 2.62141 9.17477 2.96024 11.4487 4.88588C11.475 3.15694 12.0548 1.81012 13.3743 0.856708C14.195 0.259061 15.1221 -0.0176452 16.1385 0.00964889C17.4223 0.0454136 18.5009 0.535766 19.3752 1.4713C20.2402 2.38988 20.5969 3.51365 20.6054 4.85953C23.1465 2.84541 25.5541 2.69294 27.7564 5.172C28.5319 6.05482 28.7823 7.16918 28.675 8.34565C28.5677 9.51365 28.051 10.4944 27.123 11.3856C30.1545 11.6539 32.0623 13.1165 32.0096 16.1292C31.9644 19.0186 30.083 20.4181 27.1324 20.6412ZM7.15124 12.2515C7.13242 12.2958 7.10606 12.3494 7.08912 12.3936C7.187 12.4831 7.29336 12.5819 7.39218 12.6609C8.03406 13.1965 8.69383 13.7047 9.29995 14.2666C10.3964 15.2642 10.4058 16.7541 9.31783 17.7527C8.71171 18.3146 8.04253 18.8228 7.41006 19.3574C7.29336 19.4553 7.19548 19.5626 7.08912 19.6605C7.10606 19.6962 7.12395 19.7405 7.14183 19.7762C7.27548 19.7668 7.41853 19.7668 7.55218 19.7499C8.38136 19.6784 9.21053 19.5711 10.0397 19.5353C11.5465 19.4732 12.5997 20.5254 12.5272 22.0322C12.4915 22.8435 12.3767 23.6548 12.3042 24.4755C12.2957 24.6176 12.3042 24.7692 12.3042 24.9207C12.3399 24.9395 12.3851 24.948 12.4209 24.9659C12.5188 24.8501 12.6261 24.7334 12.7239 24.6176C13.2679 23.9673 13.7847 23.2981 14.355 22.6741C15.3809 21.5682 16.7174 21.5776 17.7338 22.6835C18.3145 23.316 18.8397 24.0031 19.3931 24.6628C19.4825 24.7692 19.5983 24.8586 19.7047 24.948C19.7404 24.9292 19.7762 24.9028 19.8035 24.8849C19.7847 24.7249 19.7762 24.5734 19.7583 24.4125C19.6868 23.556 19.571 22.7005 19.5447 21.8365C19.491 20.4275 20.4717 19.4647 21.8807 19.5268C22.7719 19.5711 23.6548 19.6784 24.5461 19.7499C24.6807 19.7593 24.8143 19.7499 24.9385 19.7499C24.9479 19.7141 24.9658 19.6689 24.9743 19.6341C24.8679 19.5447 24.7691 19.4459 24.6628 19.3574C24.0199 18.8219 23.3602 18.3231 22.7456 17.7612C21.6661 16.772 21.6491 15.3094 22.7098 14.3024C23.3254 13.7226 24.0021 13.2144 24.6534 12.6704C24.7691 12.5725 24.8585 12.4652 24.9658 12.3579C24.9462 12.3201 24.9284 12.2815 24.9122 12.2421C24.7607 12.2515 24.6091 12.2609 24.4576 12.2779C23.6284 12.3494 22.8077 12.4652 21.9701 12.4915C20.5338 12.5452 19.4995 11.5108 19.5447 10.0755C19.571 9.26424 19.6868 8.45294 19.7498 7.63224C19.7677 7.45435 19.7498 7.27647 19.7498 7.10706C19.7141 7.08824 19.6689 7.07977 19.6341 7.06188L19.3395 7.41012C18.7512 8.10565 18.1978 8.81812 17.5832 9.47788C16.691 10.4144 15.3451 10.4144 14.4623 9.46941C13.8468 8.80965 13.2858 8.08777 12.7061 7.40071C12.6075 7.28558 12.5065 7.17262 12.403 7.06188C12.3578 7.08071 12.3221 7.09765 12.2778 7.11553C12.2872 7.29435 12.2872 7.47224 12.3042 7.65012C12.3757 8.52447 12.4924 9.39788 12.5188 10.2722C12.563 11.556 11.6002 12.5367 10.3164 12.4915C9.39783 12.4652 8.47924 12.3409 7.57006 12.2694C7.43029 12.2676 7.29061 12.2614 7.15124 12.2506V12.2515Z" fill="white"/>
</g>
</g>
</g>
<defs>
<clipPath id="clip0_1_249">
<rect width="32" height="32" fill="white"/>
</clipPath>
</defs>
</svg>
